<?xml version="1.0" encoding="UTF-8" standalone="no"?>
<!-- Created with Inkscape (http://www.inkscape.org/) -->

<svg
   xmlns:dc="http://purl.org/dc/elements/1.1/"
   xmlns:cc="http://creativecommons.org/ns#"
   xmlns:rdf="http://www.w3.org/1999/02/22-rdf-syntax-ns#"
   xmlns:svg="http://www.w3.org/2000/svg"
   xmlns="http://www.w3.org/2000/svg"
   xmlns:sodipodi="http://sodipodi.sourceforge.net/DTD/sodipodi-0.dtd"
   xmlns:inkscape="http://www.inkscape.org/namespaces/inkscape"
   width="132.54942mm"
   height="54.649689mm"
   viewBox="0 0 469.66331 193.64063"
   id="svg2"
   version="1.1"
   inkscape:version="0.91 r13725"
   sodipodi:docname="Unsupported.svg">
  <defs
     id="defs4" />
  <sodipodi:namedview
     id="base"
     pagecolor="#ffffff"
     bordercolor="#666666"
     borderopacity="1.0"
     inkscape:pageopacity="0.0"
     inkscape:pageshadow="2"
     inkscape:zoom="1.1678489"
     inkscape:cx="279.99865"
     inkscape:cy="176.55901"
     inkscape:document-units="px"
     inkscape:current-layer="layer1"
     showgrid="true"
     fit-margin-top="0"
     fit-margin-left="0"
     fit-margin-right="0"
     fit-margin-bottom="0"
     inkscape:window-width="1114"
     inkscape:window-height="1392"
     inkscape:window-x="39"
     inkscape:window-y="1"
     inkscape:window-maximized="0">
    <inkscape:grid
       type="xygrid"
       id="grid3336"
       originx="-92.048592"
       originy="-349.6221" />
  </sodipodi:namedview>
  <metadata
     id="metadata7">
    <rdf:RDF>
      <cc:Work
         rdf:about="">
        <dc:format>image/svg+xml</dc:format>
        <dc:type
           rdf:resource="http://purl.org/dc/dcmitype/StillImage" />
        <dc:title></dc:title>
        <cc:license
           rdf:resource="http://creativecommons.org/licenses/by-sa/3.0/" />
      </cc:Work>
      <cc:License
         rdf:about="http://creativecommons.org/licenses/by-sa/3.0/">
        <cc:permits
           rdf:resource="http://creativecommons.org/ns#Reproduction" />
        <cc:permits
           rdf:resource="http://creativecommons.org/ns#Distribution" />
        <cc:requires
           rdf:resource="http://creativecommons.org/ns#Notice" />
        <cc:requires
           rdf:resource="http://creativecommons.org/ns#Attribution" />
        <cc:permits
           rdf:resource="http://creativecommons.org/ns#DerivativeWorks" />
        <cc:requires
           rdf:resource="http://creativecommons.org/ns#ShareAlike" />
      </cc:License>
    </rdf:RDF>
  </metadata>
  <g
     inkscape:label="Layer 1"
     inkscape:groupmode="layer"
     id="layer1"
     transform="translate(-92.04859,-509.09949)">
    <path
       style="fill:none;fill-rule:evenodd;stroke:#000000;stroke-width:1.05554247px;stroke-linecap:butt;stroke-linejoin:miter;stroke-opacity:1"
       d="m 92.04859,682.3622 c 467.95141,0 467.95141,0 467.95141,0"
       id="path3338"
       inkscape:connector-curvature="0" />
    <path
       style="fill:#8a8a8a;fill-opacity:1;fill-rule:evenodd;stroke:#000000;stroke-width:1px;stroke-linecap:butt;stroke-linejoin:miter;stroke-opacity:1"
       d="m 120,682.3622 100,0 0,-90 40,30 20,0 -70,-90 -90,0 z"
       id="path3340"
       inkscape:connector-curvature="0" />
    <path
       style="fill:#8a8a8a;fill-opacity:1;fill-rule:evenodd;stroke:#000000;stroke-width:1px;stroke-linecap:butt;stroke-linejoin:miter;stroke-opacity:1"
       d="m 330,682.3622 100,0 0,-90 20,-20 -30,-40 -90,0 z"
       id="path4144"
       inkscape:connector-curvature="0" />
    <path
       style="fill:none;fill-rule:evenodd;stroke:#000000;stroke-width:1px;stroke-linecap:butt;stroke-linejoin:miter;stroke-opacity:1"
       d="m 444,676.3622 c 1.08163,-0.43925 2.08478,-1.18722 3.24488,-1.31776 0.40112,-0.0451 0.49523,0.67576 0.85627,0.85628 0.80731,0.40365 1.76152,0.45262 2.56883,0.85627 0.36103,0.18052 0.49523,0.67576 0.85627,0.85628 3.90398,1.95199 1.34743,-0.073 5.99393,0.85628 1.77013,0.35402 3.35702,1.41577 5.13765,1.71255 1.68925,0.28154 3.43014,-0.13135 5.13765,0 2.01232,0.15479 3.98396,0.67355 5.99393,0.85627 1.98977,0.18089 3.99595,0 5.99392,0 1.1417,0 2.2834,0 3.4251,0 1.1417,0 2.33155,0.32807 3.4251,0 1.83394,-0.55018 3.32122,-1.96335 5.13766,-2.56882 1.64707,-0.54903 3.41209,-0.66455 5.13765,-0.85628 1.64159,-0.1824 3.46985,0 5.13765,0 0.28542,0 0.65445,0.20183 0.85627,0 0.20183,-0.20183 -0.12764,-0.60098 0,-0.85628 0.51377,-1.02753 2.05506,-1.54129 2.56883,-2.56882 0.12764,-0.25529 0,-0.57085 0,-0.85628 0,-0.57085 0,-1.1417 0,-1.71255 0,-0.57085 0.13845,-1.15874 0,-1.71255 -0.15479,-0.61917 -0.57085,-1.1417 -0.85628,-1.71255 -0.28542,-0.57085 -0.40497,-1.26125 -0.85627,-1.71255 -0.7277,-0.72769 -1.92594,-0.90894 -2.56883,-1.71255 -0.56384,-0.7048 -0.1342,-2.02727 -0.85627,-2.56882 -0.68502,-0.51377 -1.72918,0.16793 -2.56883,0 -1.5498,0.5161 -1.59252,-1.38712 -2.56882,-1.71255 -1.38071,-0.46024 -2.88737,-0.43808 -4.28138,-0.85628 -1.47224,-0.44167 -2.80914,-1.27088 -4.28138,-1.71255 -3.63232,-1.0897 -6.58787,-0.85627 -10.2753,-0.85627 -0.57085,0 -1.1417,0 -1.71255,0 -0.57085,0 -1.15874,-0.13846 -1.71255,0 -1.05321,0.2633 -3.72888,2.20049 -4.28137,2.56882 -0.85628,0.57085 -1.68637,1.18308 -2.56883,1.71255 -1.09455,0.65673 -2.36302,1.0045 -3.4251,1.71255 -1.72124,1.1475 -0.20388,0.61163 -0.85628,2.56883 -0.12764,0.38294 -0.63237,0.52041 -0.85627,0.85627 -1.62215,-0.0975 -0.57085,1.99798 -0.85628,2.56883 -0.18051,0.36104 -0.72863,0.47334 -0.85627,0.85627 -0.18052,0.54156 0,1.1417 0,1.71255 0,2.14994 0.0307,2.59951 1.71255,4.28138 0.28542,0.28542 0.49524,0.67576 0.85627,0.85627 0.2553,0.12765 0.59127,-0.106 0.85628,0 7.00681,3.50341 -0.14497,0.23711 6.8502,2.56883 0.60548,0.20183 1.11997,0.61924 1.71255,0.85628 0.83804,0.33521 1.68376,0.67926 2.56883,0.85627 0.27994,0.056 4.00143,0.056 4.28137,0 4.02794,-0.80559 2.06055,-1.22208 5.99393,-4.28138 1.32864,-1.03338 5.89691,-3.50584 7.70648,-4.28137 0.82961,-0.35555 1.68376,-0.67926 2.56882,-0.85628 1.27009,-0.25401 2.67556,0.64282 3.4251,-0.85627 0.12765,-0.25529 0.17126,-0.62794 0,-0.85628 -0.72657,-0.96876 -1.56125,-1.8971 -2.56882,-2.56882 -0.75101,-0.50067 -1.7043,-0.59692 -2.56883,-0.85628 -1.99029,-0.59709 -3.94427,-1.37094 -5.99393,-1.71255 -1.4077,-0.23462 -2.85425,0 -4.28137,0 -4.28138,0 -8.56275,0 -12.84413,0 -4.28137,0 -8.56275,0 -12.84413,0 -0.85627,0 -1.71255,0 -2.56882,0 -0.28543,0 -0.57085,0 -0.85628,0 -0.28542,0 -0.60098,-0.12764 -0.85627,0 -0.36104,0.18052 -0.52042,0.63237 -0.85628,0.85628 -0.53104,0.35402 -1.26125,0.40498 -1.71255,0.85627 -0.20182,0.20183 0.20183,0.65445 0,0.85628 -0.20182,0.20182 -0.65445,-0.20183 -0.85627,0 -0.20183,0.20182 0,0.57085 0,0.85627 0,0.28543 -0.0903,0.5855 0,0.85628 0.20182,0.60548 0.57085,1.1417 0.85627,1.71255 0.87518,1.75035 0.83775,2.12679 2.56883,3.4251 0.51058,0.38294 1.26125,0.40498 1.71255,0.85627 1.04293,1.04293 0.4011,1.9131 1.71255,2.56883 0.8073,0.40365 1.71255,0.57085 2.56882,0.85628 2.79606,0.93201 3.54368,1.29923 6.85021,1.71255 0.84966,0.1062 1.71255,0 2.56882,0 1.1417,0 2.32733,0.31364 3.4251,0 0.98952,-0.28272 1.62292,-1.30717 2.56883,-1.71255 1.08168,-0.46358 2.32319,-0.44306 3.4251,-0.85628 1.19518,-0.4482 2.17903,-1.43565 3.4251,-1.71255 1.39314,-0.30959 2.85425,0 4.28137,0 1.71255,0 3.42511,0 5.13766,0 1.45682,0 3.10753,0.31756 4.28137,-0.85628 0.20183,-0.20182 -0.12764,-0.60098 0,-0.85627 0.18052,-0.36104 0.67576,-0.49524 0.85628,-0.85628 0.13029,-0.26059 0,-2.18319 0,-2.56882 0,-0.57085 0.18052,-1.171 0,-1.71255 -1.83803,-5.51409 -8.01704,-5.7009 -12.84413,-6.8502 -2.83162,-0.6742 -5.72129,-1.08112 -8.56275,-1.71255 -9.57557,-2.12791 -3.72239,-1.71255 -11.98786,-1.71255 -0.57085,0 -1.1417,0 -1.71255,0 -0.28542,0 -0.65445,-0.20183 -0.85627,0 -0.86642,0.86641 -1.21096,3.44538 -1.71255,4.28137 -0.41536,0.69226 -1.20823,1.08215 -1.71255,1.71255 -0.64288,0.80361 -0.98486,1.84113 -1.71255,2.56883 -1.04293,1.04293 -1.9131,0.4011 -2.56883,1.71255 -0.12764,0.25529 0,0.57085 0,0.85627 0,0.28543 0,0.57085 0,0.85628 0,0.85627 0,1.71255 0,2.56882 0,0.57085 -0.18052,1.171 0,1.71255 0.291,0.87301 2.10258,1.36287 2.56883,1.71255 0.64584,0.48439 1.02029,1.2972 1.71255,1.71256 0.74831,0.44898 5.5225,1.65362 5.99392,1.71255 1.13289,0.14161 2.28907,-0.11361 3.42511,0 1.72755,0.17275 3.40659,0.72311 5.13765,0.85627 3.41501,0.26269 6.8502,0 10.2753,0 3.71052,0 7.42105,0 11.13158,0 0.57085,0 1.1417,0 1.71255,0 0.85627,0 1.73811,0.20768 2.56882,0 1.62281,-0.4057 0.45697,-0.91394 0.85628,-1.71255 0.18052,-0.36104 0.57085,-0.57085 0.85627,-0.85627 0,-0.57086 -0.18052,-1.171 0,-1.71256 0.22489,-0.67467 3.01346,-2.6018 3.4251,-3.4251 0.12765,-0.25529 0,-0.57085 0,-0.85627 0,-0.28543 0,-0.57085 0,-0.85628 0,-0.57085 0.31665,-1.23757 0,-1.71255 -0.35402,-0.53104 -1.1417,-0.57085 -1.71255,-0.85627 -3.57546,-1.78773 -0.18572,-0.41198 -6.8502,-0.85628 -20.88171,-1.39211 10.55895,-0.85627 -22.26315,-0.85627 -22.59678,0 -2.82613,0.44128 -19.69433,-0.85628 -1.13834,-0.0876 -2.30557,0.22391 -3.4251,0 -0.39582,-0.0792 -0.72863,-1.23921 -0.85628,-0.85627 -0.36104,1.08311 0,2.2834 0,3.4251 0,0.85627 0,1.71255 0,2.56882 0,0.57085 0.25677,1.20271 0,1.71255 -0.57852,1.14872 -2.96379,1.87993 -2.3886,3.03031 0.0985,0.19692 2.9114,-1.71434 4.10115,-1.31776 0.60548,0.20183 1.11997,0.61925 1.71255,0.85628 2.05223,0.82089 4.74307,1.47842 6.8502,1.71255 1.13472,0.12608 2.29039,-0.12608 3.4251,0 1.44649,0.16072 2.83197,0.72451 4.28138,0.85628 1.70552,0.15504 3.43102,-0.14222 5.13765,0 1.73018,0.14418 3.40748,0.71209 5.13765,0.85627 1.70664,0.14222 3.4251,0 5.13765,0 1.99798,0 3.99595,0 5.99393,0 6.37785,0 6.21957,0.24782 12.84413,-0.85627 4.805,-0.80084 1.9219,-0.69455 5.99392,-1.71256 0.27691,-0.0692 0.60099,0.12765 0.85628,0 0.36104,-0.18051 0.52042,-0.63236 0.85627,-0.85627 0.53104,-0.35403 1.18152,-0.50225 1.71255,-0.85628 0.33586,-0.2239 0.57085,-0.57085 0.85628,-0.85627 0.28542,-0.28543 0.67576,-0.49524 0.85627,-0.85628 0.12765,-0.25529 0.0692,-0.57937 0,-0.85627 -0.93906,-3.75626 -0.90009,-2.82626 -5.13765,-5.13765 -1.68089,-0.91686 -3.45675,-1.65197 -5.13765,-2.56883 -1.46108,-0.79695 -2.79278,-1.82453 -4.28137,-2.56882 -2.15656,-1.07828 -5.25366,-2.16002 -7.70648,-2.56883 -0.56308,-0.0938 -1.1417,0 -1.71255,0 -4.16552,0 -6.46539,-0.12608 -11.13158,0.85628 -2.916,0.61389 -5.65693,1.90841 -8.56275,2.56882 -3.386,0.76955 -6.85897,1.0914 -10.2753,1.71255 -2.86383,0.5207 -5.71659,1.10266 -8.56275,1.71255 -1.15072,0.24658 -2.26009,0.68985 -3.4251,0.85628 -0.84767,0.12109 -1.96335,-0.60548 -2.56883,0 -0.60548,0.60548 0,1.71255 0,2.56882 0,0.85628 -0.33549,1.78101 0,2.56883 1.9794,4.64809 3.09404,4.17481 7.70648,5.13765 5.9002,1.23166 5.36082,0.85628 11.98785,0.85628 7.13563,0 14.27125,0 21.40688,0 2.56882,0 5.13765,0 7.70648,0 0.85627,0 1.71778,0.0946 2.56882,0 1.72556,-0.19173 3.42167,-0.59228 5.13765,-0.85628 1.99479,-0.30689 4.00822,-0.49524 5.99393,-0.85628 0.0272,-0.005 5.58634,-1.30496 5.99392,-1.71255 0.40366,-0.40365 0,-1.1417 0,-1.71255 0,-0.57085 0.2937,-1.22305 0,-1.71255 -1.28162,-2.13604 -3.27357,-2.88332 -5.13765,-4.28137 -0.32292,-0.24219 -0.49523,-0.67576 -0.85627,-0.85628 -0.80731,-0.40365 -1.73921,-0.50072 -2.56883,-0.85627 -1.17325,-0.50282 -2.18675,-1.40297 -3.4251,-1.71255 -2.23246,-0.55812 -4.58034,-0.47797 -6.8502,-0.85628 -2.87117,-0.47853 -5.68759,-1.25858 -8.56275,-1.71255 -2.55301,-0.4031 -5.13955,-0.55428 -7.70648,-0.85627 -2.28541,-0.26888 -4.55413,-0.70321 -6.8502,-0.85628 -1.99355,-0.1329 -3.99595,0 -5.99393,0 -1.1417,0 -2.2834,0 -3.4251,0 -0.57085,0 -1.15278,-0.11195 -1.71255,0 -0.88506,0.17701 -1.69318,0.63737 -2.56882,0.85628 -0.27691,0.0692 -0.65445,-0.20183 -0.85628,0 -0.20182,0.20182 0.12765,0.60098 0,0.85627 -0.18052,0.36104 -0.67575,0.49524 -0.85627,0.85628 -0.12765,0.25529 0.12764,0.60098 0,0.85627 -0.11147,0.22293 -1.52565,1.04318 -0.85628,1.71255 0.4513,0.4513 1.20197,0.47334 1.71255,0.85628 3.18576,2.38932 0.0905,1.32965 4.28138,3.4251 0.8073,0.40365 1.76152,0.45262 2.56882,0.85627 1.4886,0.7443 2.76052,1.89289 4.28138,2.56883 0.98939,0.43973 7.02947,1.57715 7.70648,1.71255 1.42712,0.28542 2.85425,0.57085 4.28137,0.85627 1.42713,0.28543 2.83489,0.69556 4.28138,0.85628 1.13472,0.12608 2.2834,0 3.4251,0 4.28138,0 8.56275,0 12.84413,0 2.2834,0 4.5668,0 6.8502,0 0.85627,0 1.71255,0 2.56882,0 0.85628,0 1.73812,0.20768 2.56883,0 0.3916,-0.0979 0.75837,-0.46468 0.85627,-0.85628 0.20768,-0.8307 0,-1.71255 0,-2.56882 0,-0.57085 0,-1.1417 0,-1.71255 0,-0.85628 0.27078,-1.75649 0,-2.56883 -0.66024,-1.98073 -0.73395,-0.20387 -1.71255,-0.85627 -0.67171,-0.44781 -1.04083,-1.26474 -1.71255,-1.71255 -3.38609,-2.2574 -8.51579,-3.18494 -11.98785,-4.28138 -2.58209,-0.8154 -5.09012,-1.87113 -7.70648,-2.56882 -4.09084,-1.0909 -5.41907,-0.85628 -9.41902,-0.85628 -2.76208,0 -5.00603,-0.22391 -7.70648,0.85628 -1.54526,0.6181 -2.82029,1.77187 -4.28137,2.56882 -3.91111,2.13333 -8.11892,3.78311 -11.98786,5.99393 -2.63081,1.50332 -2.88882,2.39006 -5.99392,3.4251 -0.54156,0.18052 -1.3089,-0.40365 -1.71255,0 -0.55733,0.55733 0.27866,1.86202 0,2.56882 -0.41517,1.05302 -2.21147,2.12479 -1.53233,3.03031 0.82402,1.0987 2.75132,0.14161 4.10115,0.39479 6.97124,1.30758 -3.15391,0.85628 6.8502,0.85628 2.2834,0 4.5668,0 6.8502,0 2.2834,0 4.56681,0 6.85021,0 1.99797,0 4.00102,-0.14235 5.99392,0 13.68319,0.97737 1.07303,0.85628 8.56275,0.85628 0.88457,0 4.4719,0.19021 5.13766,0 9.12605,-3.65043 -0.53361,-0.088 8.56275,-2.56883 1.74158,-0.47498 3.40192,-1.21663 5.13765,-1.71255 0.27444,-0.0784 0.72863,0.25529 0.85627,0 0.2553,-0.51058 0,-1.1417 0,-1.71255 0,-0.57085 0.18052,-1.171 0,-1.71255 -0.12764,-0.38294 -0.63237,-0.52042 -0.85627,-0.85628 -0.35403,-0.53104 -0.47334,-1.20196 -0.85628,-1.71255 -0.48438,-0.64584 -1.1417,-1.1417 -1.71255,-1.71255 -0.57085,-0.57085 -1.02029,-1.29719 -1.71255,-1.71255 -0.77397,-0.46438 -1.73921,-0.50072 -2.56882,-0.85627 -1.17325,-0.50283 -2.2255,-1.27633 -3.4251,-1.71255 -4.24188,-1.54251 -7.52351,-2.12239 -11.98786,-2.56883 -1.70405,-0.1704 -3.4251,0 -5.13765,0 -1.71255,0 -3.43832,-0.21241 -5.13765,0 -4.05511,0.50689 -7.97118,1.8157 -11.98785,2.56883 -1.98369,0.37194 -3.98801,0.63339 -5.99393,0.85627 -0.56736,0.063 -1.17099,-0.18052 -1.71255,0 -0.38294,0.12765 -0.72863,0.47334 -0.85627,0.85628 -0.27078,0.81233 0,1.71255 0,2.56882 0,0.85628 0,1.71255 0,2.56883 0,0.28542 -0.0903,0.5855 0,0.85627 0.20182,0.60548 0.40498,1.26126 0.85627,1.71255 0.4513,0.4513 1.1417,0.57085 1.71255,0.85628 2.66998,1.33499 1.87187,1.12368 5.99393,1.71255 6.67665,0.95381 10.16341,1.15897 17.1255,0.85627 8.72268,-0.37924 17.6444,-1.25986 24.83198,-6.8502 0.81234,-0.63181 1.09508,-1.74553 1.71255,-2.56882 0.24219,-0.32292 0.67576,-0.49524 0.85628,-0.85628 0.25529,-0.51058 -0.25529,-1.20196 0,-1.71255 0.18052,-0.36104 0.67575,-0.49524 0.85627,-0.85627 0.94654,-1.89307 0.85628,-1.96556 0.85628,-3.4251 0,-0.57085 0,-1.1417 0,-1.71255 0,-0.28543 0.22834,-0.68502 0,-0.85628 -1.02117,-0.76588 -2.3045,-1.10131 -3.4251,-1.71255 -2.02019,-1.10192 -3.89109,-2.49051 -5.99393,-3.4251 -3.05287,-1.35683 -6.2757,-2.2935 -9.41903,-3.4251 -3.99232,-1.43724 -7.94657,-2.98817 -11.98785,-4.28138 -3.09952,-0.99184 -6.25119,-1.82345 -9.41903,-2.56882 -0.63674,-0.14983 -6.84259,-1.28632 -8.56275,-0.85628 -2.70905,0.67726 -2.6674,2.7167 -4.28137,5.13765 -1.36197,2.04295 -2.91941,3.95098 -4.28138,5.99393 -0.92319,1.38478 -1.50337,3.00282 -2.56882,4.28138 -0.40859,0.4903 -1.18152,0.50224 -1.71255,0.85627 -0.33586,0.22391 -0.67576,0.49524 -0.85628,0.85628 -0.0224,0.0448 -0.0224,2.52402 0,2.56882 0.18052,0.36104 0.57085,0.57085 0.85628,0.85628 1.79475,1.79475 2.84377,1.58573 5.13765,2.56882 1.17325,0.50282 2.17343,1.46222 3.4251,1.71255 1.67929,0.33586 3.43101,-0.14222 5.13765,0 1.73017,0.14418 3.42166,0.59228 5.13765,0.85628 1.99479,0.30689 3.98395,0.67355 5.99393,0.85627 1.13701,0.10337 2.29487,-0.16146 3.4251,0 0.89352,0.12765 1.67851,0.70789 2.56882,0.85628 1.12617,0.18769 2.2834,0 3.4251,0 0.57085,0 1.15875,0.13845 1.71255,0 1.84053,-0.46013 5.52869,-3.93245 5.99393,-4.28138 0.85627,-0.57085 1.71255,-1.1417 2.56882,-1.71255 0.57085,0 1.20197,0.25529 1.71256,0 0.25529,-0.12764 -0.20183,-0.65445 0,-0.85627 0.20182,-0.20183 0.65444,0.20182 0.85627,0 0.20183,-0.20183 0,-0.57085 0,-0.85628 0,-0.57085 0.11195,-1.15278 0,-1.71255 -0.17701,-0.88506 -0.63736,-1.69318 -0.85627,-2.56882 -0.0692,-0.27691 0.12764,-0.60099 0,-0.85628 -0.18052,-0.36104 -0.49524,-0.67576 -0.85628,-0.85628 -0.25529,-0.12764 -0.60098,0.12765 -0.85628,0 -3.45515,-1.72757 4.2502,-0.26623 -3.4251,-2.56882 -3.527,-1.0581 -6.71903,-0.85628 -10.2753,-0.85628 -1.1417,0 -2.2834,0 -3.4251,0 -1.1417,0 -2.29487,-0.16146 -3.4251,0 -1.7639,0.25199 -4.61241,1.87807 -5.99393,2.56883 -2.63124,1.31562 -6.88975,2.72702 -7.70647,5.99393 -0.20768,0.8307 0,1.71255 0,2.56882 0,0.57085 0.18052,1.171 0,1.71255 -0.45668,1.37004 -1.99224,0.2969 -0.85628,2.56883 0.12765,0.25529 0.5855,-0.0903 0.85628,0 0.60548,0.20182 1.1417,0.57085 1.71255,0.85627 1.1417,0.57085 2.21414,1.3089 3.4251,1.71255 3.40847,1.13616 5.05417,0.85628 8.56275,0.85628 1.1417,0 2.2834,0 3.4251,0 1.1417,0 2.31059,0.24767 3.4251,0 1.50046,-0.33344 2.85425,-1.1417 4.28138,-1.71255 1.42712,-0.57085 2.86859,-1.10707 4.28137,-1.71255 2.58382,-1.10735 5.15411,-2.24708 7.70648,-3.4251 1.15897,-0.53491 2.34267,-1.03603 3.4251,-1.71255 1.2102,-0.75638 2.14864,-1.9306 3.4251,-2.56883 0.51059,-0.25529 1.20197,0.25529 1.71255,0 0.25529,-0.12765 0,-0.57085 0,-0.85627 0,-1.71255 0,-3.42511 0,-5.13766 0,-1.42712 0.27988,-2.88196 0,-4.28137 -0.37684,-1.88423 -1.46809,-1.95746 -2.56882,-3.4251 -0.38294,-0.51059 -0.32524,-1.35853 -0.85628,-1.71255 -0.47497,-0.31665 -1.15874,0.13845 -1.71255,0 -0.61917,-0.1548 -1.10707,-0.65445 -1.71255,-0.85628 -0.44244,-0.14748 -3.82706,-0.0649 -4.28138,0 -5.91869,0.84553 -2.79267,0.64547 -8.56275,2.56883 -1.11644,0.37215 -2.3725,0.32997 -3.4251,0.85627 -1.44256,0.72129 -1.92173,2.13093 -2.56882,3.4251 -0.28543,0.57085 -0.50225,1.18151 -0.85628,1.71255 -0.2239,0.33586 -0.72863,0.47334 -0.85627,0.85628 -0.18052,0.54156 0,1.1417 0,1.71255 0,0.57085 0,1.1417 0,1.71255 0,0.99471 -0.19407,3.50512 0,4.28138 0.15479,0.61917 0.65445,1.10707 0.85627,1.71255 0.0903,0.27077 -0.12764,0.60098 0,0.85627 0.18052,0.36104 0.57085,0.57085 0.85628,0.85628 0.57085,0.57085 1.04083,1.26474 1.71255,1.71255 1.47725,0.98483 6.64947,3.19021 7.70647,3.4251 1.11452,0.24767 2.34199,-0.36104 3.4251,0 0.76588,0.25529 0.94668,1.45726 1.71255,1.71255 1.08312,0.36104 2.29488,-0.16146 3.42511,0 0.89352,0.12764 1.68376,0.67926 2.56882,0.85627 0.55977,0.11196 1.1417,0 1.71255,0 0.85628,0 1.71255,0 2.56883,0 0.57085,0 1.18253,0.21201 1.71255,0 0.95551,-0.3822 1.64835,-1.25231 2.56882,-1.71255 1.37479,-0.68739 2.88209,-1.07651 4.28138,-1.71255 1.74307,-0.7923 3.38798,-1.79119 5.13765,-2.56882 0.8248,-0.36658 1.81782,-0.35561 2.56883,-0.85628 0.23748,-0.15832 -0.12765,-0.60098 0,-0.85627 0.58478,-1.16957 1.19096,-0.37381 0.85627,-1.71255 -0.92501,-3.70004 -0.63959,-1.95422 -3.4251,-5.13765 -1.20349,-1.37542 -2.02109,-3.11137 -3.4251,-4.28138 -0.43854,-0.36545 -1.18253,0.21201 -1.71255,0 -0.95551,-0.3822 -1.68637,-1.18308 -2.56883,-1.71255 -2.40983,-1.4459 -6.64923,-2.21615 -9.41902,-1.71255 -9.37863,1.7052 -2.71296,1.27472 -11.13158,4.28137 -0.0218,0.008 -13.63525,3.40649 -13.7004,3.42511 -1.73573,0.49592 -3.38637,1.27472 -5.13766,1.71255 -0.5538,0.13845 -1.23757,-0.31666 -1.71255,0 -0.53104,0.35402 -0.50224,1.18151 -0.85627,1.71255 -0.22391,0.33585 -0.67576,0.49523 -0.85628,0.85627 -0.12764,0.25529 0.0903,0.5855 0,0.85628 -0.20182,0.60547 -0.70148,1.09337 -0.85627,1.71255 -0.13845,0.5538 0,1.1417 0,1.71255 0,1.1417 0,2.2834 0,3.4251 0,0.20767 -0.0275,2.54129 0,2.56882 0.90922,0.90922 4.51553,1.57431 5.13765,1.71255 1.42073,0.31572 2.82921,0.75947 4.28138,0.85628 6.38367,0.42558 9.34263,0.0109 15.41295,-0.85628 1.71872,-0.24553 3.44282,-0.47964 5.13765,-0.85627 0.8811,-0.1958 1.69318,-0.63737 2.56883,-0.85628 0.2769,-0.0692 0.72863,0.2553 0.85627,0 0.25529,-0.51058 0,-1.1417 0,-1.71255 0,-0.85627 0.14077,-1.7242 0,-2.56882 -0.26452,-1.58715 -1.01377,-2.88381 -1.71255,-4.28138 -1.10317,-2.20633 -1.9331,-4.68933 -4.28138,-5.99392 -1.57801,-0.87668 -3.47842,-1.00146 -5.13765,-1.71256 -2.3465,-1.00564 -4.45983,-2.52871 -6.8502,-3.4251 -2.20381,-0.82643 -4.61731,-0.96825 -6.8502,-1.71255 -2.06218,-0.68739 -3.93174,-1.88143 -5.99393,-2.56882 -2.93117,-0.97706 -4.28692,-0.43092 -6.8502,-1.71255 -0.22293,-0.11147 -1.04318,-1.52565 -1.71255,-0.85628 -0.20182,0.20183 0.12765,0.60099 0,0.85628 -0.46023,0.92047 -1.16712,1.69614 -1.71255,2.56882 -1.76415,2.82265 -3.4862,5.67272 -5.13765,8.56276 -0.31665,0.55413 -0.40498,1.26125 -0.85627,1.71255 -0.4513,0.45129 -1.26126,0.40497 -1.71255,0.85627 -0.20183,0.20183 0,0.57085 0,0.85628 0,0.57085 0,1.1417 0,1.71255 0,0.28542 0,0.57085 0,0.85627 0,0.28543 -0.15833,0.61879 0,0.85628 1.51887,2.27831 1.87677,1.53828 4.28137,2.56882 1.17325,0.50282 2.21415,1.3089 3.4251,1.71255 1.3807,0.46024 2.86065,0.54056 4.28138,0.85628 3.94195,0.87599 3.98665,1.25494 8.56275,1.71255 1.13603,0.1136 2.2834,0 3.4251,0 1.42713,0 2.85425,0 4.28138,0 0.85627,0 1.72918,0.16793 2.56882,0 2.10215,-0.42043 4.92458,-3.55927 6.8502,-4.28138 1.38726,-0.52022 5.80504,-0.4785 6.85021,-2.56882 0.12764,-0.2553 0,-0.57085 0,-0.85628 0,-0.85627 0.31801,-1.77379 0,-2.56882 -0.0505,-0.12635 -3.20885,-3.13677 -3.42511,-3.4251 -0.76587,-1.02117 -0.80995,-2.52251 -1.71255,-3.42511 -0.45129,-0.45129 -1.1417,-0.57085 -1.71255,-0.85627 -6.4075,-3.20376 -1.02515,-0.7144 -11.13157,-4.28138 -8.98207,-3.17014 -4.0405,-2.56882 -11.98786,-2.56882 -1.1417,0 -2.2834,0 -3.4251,0 -0.57085,0 -1.17099,-0.18052 -1.71255,0 -0.38294,0.12764 -0.52041,0.63237 -0.85627,0.85627 -0.53104,0.35403 -1.32962,0.34569 -1.71255,0.85628 -0.734,0.97866 -1.61854,6.47413 -1.71255,6.8502 -0.43783,1.75129 -1.27473,3.38636 -1.71255,5.13765 -0.0772,0.30888 -0.0772,3.11622 0,3.4251 0.21891,0.87565 0.31472,1.84675 0.85627,2.56883 0.38294,0.51058 1.1417,0.57085 1.71255,0.85627 1.97427,0.98714 3.82648,2.02697 5.99393,2.56883 0.5538,0.13845 1.1417,0 1.71255,0 0.28542,0 1.13133,0.0762 0.85627,0 -1.44032,-0.39925 -2.91763,-0.65051 -4.37645,-0.97577"
       id="path4148"
       inkscape:connector-curvature="0" />
    <text
       xml:space="preserve"
       style="font-style:normal;font-variant:normal;font-weight:normal;font-stretch:normal;font-size:18px;line-height:125%;font-family:Helvetica;-inkscape-font-specification:Helvetica;text-align:start;letter-spacing:0px;word-spacing:0px;writing-mode:lr-tb;text-anchor:start;fill:#000000;fill-opacity:1;stroke:none;stroke-width:1px;stroke-linecap:butt;stroke-linejoin:miter;stroke-opacity:1"
       x="120"
       y="522.36218"
       id="text4150"
       sodipodi:linespacing="125%"><tspan
         sodipodi:role="line"
         id="tspan4152"
         x="120"
         y="522.36218">Desired Object</tspan></text>
    <text
       xml:space="preserve"
       style="font-style:normal;font-variant:normal;font-weight:normal;font-stretch:normal;font-size:18px;line-height:125%;font-family:Helvetica;-inkscape-font-specification:Helvetica;text-align:start;letter-spacing:0px;word-spacing:0px;writing-mode:lr-tb;text-anchor:start;fill:#000000;fill-opacity:1;stroke:none;stroke-width:1px;stroke-linecap:butt;stroke-linejoin:miter;stroke-opacity:1"
       x="330"
       y="522.36218"
       id="text4154"
       sodipodi:linespacing="125%"><tspan
         sodipodi:role="line"
         id="tspan4156"
         x="330"
         y="522.36218">Actual Object</tspan></text>
    <text
       xml:space="preserve"
       style="font-style:normal;font-variant:normal;font-weight:normal;font-stretch:normal;font-size:18px;line-height:125%;font-family:Helvetica;-inkscape-font-specification:Helvetica;text-align:start;letter-spacing:0px;word-spacing:0px;writing-mode:lr-tb;text-anchor:start;fill:#000000;fill-opacity:1;stroke:none;stroke-width:1px;stroke-linecap:butt;stroke-linejoin:miter;stroke-opacity:1"
       x="444"
       y="632.36218"
       id="text4158"
       sodipodi:linespacing="125%"><tspan
         sodipodi:role="line"
         id="tspan4160"
         x="444"
         y="632.36218">Pile of Filiment</tspan></text>
    <text
       xml:space="preserve"
       style="font-style:normal;font-variant:normal;font-weight:normal;font-stretch:normal;font-size:18px;line-height:125%;font-family:Helvetica;-inkscape-font-specification:Helvetica;text-align:start;letter-spacing:0px;word-spacing:0px;writing-mode:lr-tb;text-anchor:start;fill:#000000;fill-opacity:1;stroke:none;stroke-width:1px;stroke-linecap:butt;stroke-linejoin:miter;stroke-opacity:1"
       x="230"
       y="702.36218"
       id="text4162"
       sodipodi:linespacing="125%"><tspan
         sodipodi:role="line"
         id="tspan4164"
         x="230"
         y="702.36218">Print Surface</tspan></text>
  </g>
</svg>
